# ProBuilder 6.0.4
# https://unity3d.com/unity/features/worldbuilding/probuilder
# 11/26/2024 11:57:02 PM

mtllib ./probuilder_map_layout.mtl
o probuilder_map_layout

g Plane
v 10 0.0001001358 -10
v 10 0.0001001358 5
v 0 0.0001001358 -10
v 0 0.0001001358 5
v 10 0.0001001358 20
v 0 0.0001001358 20
v -10 0.0001001358 -10
v -10 0.0001001358 5
v -10 0.0001001358 20

vt -10 -15
vt -10 0
vt 0 -15
vt 0 0
vt -10 15
vt 0 15
vt 10 -15
vt 10 0
vt 10 15

vn 0 1 0

usemtl ProBuilderDefault
f 3/3/1 4/4/1 2/2/1 1/1/1
f 4/4/1 6/6/1 5/5/1 2/2/1
f 7/7/1 8/8/1 4/4/1 3/3/1
f 8/8/1 9/9/1 6/6/1 4/4/1

g Plane (1)
v 25 0.0001001358 -7
v 25 0.0001001358 6.5
v 17.5 0.0001001358 -7
v 17.5 0.0001001358 6.5
v 25 0.0001001358 20
v 17.5 0.0001001358 20
v 10 0.0001001358 -7
v 10 0.0001001358 6.5
v 10 0.0001001358 20

vt -7.5 -13.5
vt -7.5 0
vt 0 -13.5
vt 0 0
vt -7.5 13.5
vt 0 13.5
vt 7.5 -13.5
vt 7.5 0
vt 7.5 13.5

vn 0 1 0

usemtl ProBuilderDefault
f 12/12/2 13/13/2 11/11/2 10/10/2
f 13/13/2 15/15/2 14/14/2 11/11/2
f 16/16/2 17/17/2 13/13/2 12/12/2
f 17/17/2 18/18/2 15/15/2 13/13/2

g Plane (6)
v 9 0.0001001358 37
v 9 0.0001001358 56
v 4.5 0.0001001358 37
v 4.5 0.0001001358 56
v 12 1.358057E-07 63
v 10 1.358057E-07 69
v 3 0.0001001358 37
v 2 0.0001001358 56
v 3 1.358057E-07 70

vt -5 -19
vt -5 0
vt -0.5 -19
vt -0.5 0
vt -8 7
vt -6 13
vt 1 -19
vt 2 0
vt 1 14

vn 0 1 0

usemtl ProBuilderDefault
f 21/21/3 22/22/3 20/20/3 19/19/3
f 22/22/3 24/24/3 23/23/3 20/20/3
f 25/25/3 26/26/3 22/22/3 21/21/3
f 26/26/3 27/27/3 24/24/3 22/22/3

g PolyShape (1)
v -4 0 20
v 1 0 25
v 3 0 32
v 3 0 37
v 9 0 37
v 10 0 34
v 12 0 30
v 15 0 24
v 16 0 20
v 12 0 20
v 9 0 20
v 6 -9.536743E-07 27
v 8 0 31
v 7 0 20

vt 0 0
vt -5 5
vt -7 12
vt -7 17
vt -13 17
vt -14 14
vt -16 10
vt -19 4
vt -20 1.333087E-16
vt -16 1.066469E-16
vt -13 8.665064E-17
vt -10 7
vt -12 11
vt -11 7.331977E-17
vt 11 7.331977E-17
vt 13 8.665064E-17
vt 10 7
vt 12 11
vt 16 1.066469E-16
vt 20 1.333087E-16
vt 19 4
vt 16 10
vt 14 14
vt 13 17
vt 7 17
vt 7 12
vt 5 5

vn 0 1 0
vn 0 -1 0

usemtl ProBuilderDefault
f 32/32/4 30/30/4 31/31/4
f 28/28/4 29/29/4 41/41/4
f 29/29/4 38/38/4 41/41/4
f 39/39/4 38/38/4 29/29/4
f 30/30/4 39/39/4 29/29/4
f 40/40/4 39/39/4 30/30/4
f 32/32/4 40/40/4 30/30/4
f 32/32/4 33/33/4 40/40/4
f 33/33/4 34/34/4 40/40/4
f 40/40/4 34/34/4 39/39/4
f 34/34/4 38/38/4 39/39/4
f 35/35/4 38/38/4 34/34/4
f 35/35/4 37/37/4 38/38/4
f 35/35/4 36/36/4 37/37/4
f 37/46/5 36/47/5 35/48/5
f 38/43/5 37/46/5 35/48/5
f 34/49/5 38/43/5 35/48/5
f 39/44/5 38/43/5 34/49/5
f 39/44/5 34/49/5 40/45/5
f 40/45/5 34/49/5 33/50/5
f 40/45/5 33/50/5 32/51/5
f 30/53/5 40/45/5 32/51/5
f 30/53/5 39/44/5 40/45/5
f 29/54/5 39/44/5 30/53/5
f 29/54/5 38/43/5 39/44/5
f 41/42/5 38/43/5 29/54/5
f 41/42/5 29/54/5 28/28/5
f 31/52/5 30/53/5 32/51/5

g Plane (5)
v 9 5.01358E-05 79
v 10 1.358057E-07 69
v 6 0.0001001358 78.5
v 9 0.0001001358 84
v 6 0.0001001358 84
v 3 0.0001001358 70
v 3 0.0001001358 78.5
v 3 0.0001001358 84

vt -3 0.5
vt -4 -9.5
vt 0 0
vt -3 5.5
vt 0 5.5
vt 3 -8.5
vt 3 -1.9584E-10
vt 3 5.5

vn 1.721311E-05 1 -3.278688E-06

usemtl ProBuilderDefault
f 43/56/6 44/57/6 42/55/6
f 46/59/6 45/58/6 42/55/6
f 42/55/6 44/57/6 46/59/6
f 48/61/6 44/57/6 43/56/6
f 43/56/6 47/60/6 48/61/6
f 49/62/6 46/59/6 44/57/6
f 44/57/6 48/61/6 49/62/6

g Plane (4)
v 40 1.358057E-07 83
v 40 1.358057E-07 85
v 30 1.358057E-07 79
v 29 0.0001001358 82
v 40 0.0001001358 88
v 29 1.358057E-07 84
v 20 1.358057E-07 70
v 20 1.358057E-07 72
v 19 1.358057E-07 74

vt -6 1
vt -6 3
vt 4 -3
vt 5 0
vt -6 6
vt 5 2
vt 14 -12
vt 14 -10
vt 15 -8

vn 0 1 0

usemtl ProBuilderDefault
f 52/65/7 53/66/7 51/64/7 50/63/7
f 53/66/7 55/68/7 54/67/7 51/64/7
f 56/69/7 57/70/7 53/66/7 52/65/7
f 57/70/7 58/71/7 55/68/7 53/66/7

g Plane (7)
v 52 1.358057E-07 94
v 59 0.0001001358 106
v 50 1.358057E-07 95
v 56 0.0001001358 106
v 59 1.358057E-07 124
v 57 1.358057E-07 124
v 48 1.358057E-07 96
v 54 0.0001001358 106
v 55 1.358057E-07 124

vt 2 -12
vt -5 -1.040583E-10
vt 4 -11
vt -2 -4.162331E-11
vt -5 18
vt -3 18
vt 6 -10
vt 0 0
vt -1 18

vn -3.225806E-06 1 -6.451613E-06

usemtl ProBuilderDefault
f 61/74/8 62/75/8 60/73/8 59/72/8
f 62/75/8 64/77/8 63/76/8 60/73/8
f 65/78/8 66/79/8 62/75/8 61/74/8
f 66/79/8 67/80/8 64/77/8 62/75/8

g Plane (8)
v 75 0 128
v 78 0 136.5
v 63 0 124
v 63 0 136.5
v 78 0 149
v 63 0 149
v 48 0 124
v 48 0 136.5
v 51 0 148

vt -17 -8.5
vt -20 0
vt -5 -12.5
vt -5 0
vt -20 12.5
vt -5 12.5
vt 10 -12.5
vt 10 0
vt 7 11.5

vn 0 1 0

usemtl ProBuilderDefault
f 70/83/9 71/84/9 69/82/9 68/81/9
f 71/84/9 73/86/9 72/85/9 69/82/9
f 74/87/9 75/88/9 71/84/9 70/83/9
f 75/88/9 76/89/9 73/86/9 71/84/9

g Cube (1)
v 68 0 139
v 62 0 139
v 68 20 139
v 62 20 139
v 62 0 133
v 62 20 133
v 68 0 133
v 68 20 133

vt 3 -13
vt -3 -13
vt 3 7
vt -3 7
vt -3 3
vt 3 3
vt -3 -3
vt 3 -3

vn 0 0 1
vn -1 0 0
vn 0 0 -1
vn 1 0 0
vn 0 1 0
vn 0 -1 0

usemtl ProBuilderDefault
f 79/92/10 80/93/10 78/91/10 77/90/10
f 80/92/11 82/93/11 81/91/11 78/90/11
f 82/92/12 84/93/12 83/91/12 81/90/12
f 84/92/13 79/93/13 77/91/13 83/90/13
f 84/96/14 82/97/14 80/95/14 79/94/14
f 77/95/15 78/94/15 81/96/15 83/97/15

g Plane (3)
v 52 1.358057E-07 94
v 50 1.358057E-07 95
v 46 1.358057E-07 88
v 45 1.358057E-07 89
v 48 1.358057E-07 96
v 43 1.358057E-07 91
v 40 1.357985E-07 83
v 40 0.0001001358 84
v 40 0.0001001358 88

vt -5 10
vt -3 11
vt 1 4
vt 2 5
vt -1 12
vt 4 7
vt 7 -1
vt 7 3.062619E-24
vt 7 4

vn 0 1 0

usemtl ProBuilderDefault
f 87/100/16 88/101/16 86/99/16 85/98/16
f 88/101/16 90/103/16 89/102/16 86/99/16
f 91/104/16 92/105/16 88/101/16 87/100/16
f 92/105/16 93/106/16 90/103/16 88/101/16

g Plane (21)
v 20 1.358057E-07 70
v 20 1.358057E-07 72
v 16 1.358057E-07 68
v 15 0.0001001358 68.5
v 19 1.358057E-07 74
v 15 0.0001001358 72
v 12 1.358057E-07 63
v 10 1.358057E-07 69
v 13 0.0001001358 71

vt -5 1.5
vt -5 3.5
vt -1 -0.5
vt 0 0
vt -4 5.5
vt 0 3.5
vt 3 -5.5
vt 5 0.5
vt 5 0.5
vt 2 2.5

vn 0 1 0

usemtl ProBuilderDefault
f 96/109/17 97/110/17 95/108/17 94/107/17
f 97/110/17 99/112/17 98/111/17 95/108/17
f 100/113/17 101/114/17 97/110/17 96/109/17
f 101/115/17 102/116/17 99/112/17 97/110/17

g Plane (17)
v 41 1.358057E-07 123
v 48 1.358057E-07 129
v 30 1.358057E-07 119
v 30 1.358057E-07 122
v 48 1.358057E-07 134
v 29 1.358057E-07 124
v 22 0.0001001358 117
v 22 1.358057E-07 118
v 21 1.358057E-07 122

vt -13 2.5
vt -20 8.5
vt -2 -1.5
vt -2 1.5
vt -20 13.5
vt -1 3.5
vt 6 -3.5
vt 6 -2.5
vt 7 1.5

vn 0 1 0

usemtl ProBuilderDefault
f 105/119/18 106/120/18 104/118/18 103/117/18
f 106/120/18 108/122/18 107/121/18 104/118/18
f 109/123/18 110/124/18 106/120/18 105/119/18
f 110/124/18 111/125/18 108/122/18 106/120/18

g PolyShape
v 3 0 84
v 1 0 89
v -7 -1.907349E-06 94
v -17 -7.629395E-06 97
v -30 -7.629395E-06 97
v -40 -1.144409E-05 98
v -40 -1.144409E-05 105
v -33 -9.536743E-06 103
v -23 -5.722046E-06 104
v -11 -1.907349E-06 109
v 3 1.907349E-06 115
v 7 5.722046E-06 114
v 8 5.722046E-06 110
v 2 1.907349E-06 106
v -6 0 101
v -4 0 98
v 2 0 93
v 7 1.907349E-06 89
v 9 0 84

vt 0 0
vt 2 5
vt 10 10
vt 20 13
vt 33 13
vt 43 14
vt 43 21
vt 36 19
vt 26 20
vt 14 25
vt -5.943556E-13 31
vt -4 30
vt -5 26
vt 1 22
vt 9 17
vt 7 14
vt 1 9
vt -4 5
vt -6 -2.484001E-13

vn -1.589457E-07 1 -2.543132E-07

usemtl ProBuilderDefault
f 122/136/19 123/137/19 124/138/19
f 125/139/19 122/136/19 124/138/19
f 122/136/19 125/139/19 121/135/19
f 125/139/19 126/140/19 121/135/19
f 119/133/19 117/131/19 118/132/19
f 119/133/19 116/130/19 117/131/19
f 120/134/19 116/130/19 119/133/19
f 120/134/19 115/129/19 116/130/19
f 121/135/19 115/129/19 120/134/19
f 121/135/19 126/140/19 115/129/19
f 126/140/19 114/128/19 115/129/19
f 126/140/19 127/141/19 114/128/19
f 127/141/19 128/142/19 114/128/19
f 128/142/19 113/127/19 114/128/19
f 128/142/19 129/143/19 113/127/19
f 129/143/19 112/126/19 113/127/19
f 129/143/19 130/144/19 112/126/19

g Plane (18)
v 22 1.358057E-07 117
v 22 0.0001001358 118
v 17 1.358057E-07 114
v 17 1.358057E-07 115
v 21 1.358057E-07 122
v 16 1.358057E-07 120
v 8 1.358057E-07 110
v 7 0.0001001358 114
v 3 1.358057E-07 115

vt -6 2
vt -6 3
vt -1 -1
vt -1 -3.999999E-09
vt -5 7
vt 3.043478E-09 5
vt 8 -5
vt 9 -1
vt 13 4.459823E-10

vn 6E-05 1 -9.999999E-05

usemtl ProBuilderDefault
f 133/147/20 134/148/20 132/146/20 131/145/20
f 134/148/20 136/150/20 135/149/20 132/146/20
f 137/151/20 138/152/20 134/148/20 133/147/20
f 138/152/20 139/153/20 136/150/20 134/148/20

g Plane (14)
v -40 1.358057E-07 90
v -40 1.358057E-07 105
v -62 1.358057E-07 88
v -60 0.0001001358 106
v -40 1.358057E-07 125
v -60 0.0001001358 125
v -79 1.358057E-07 88
v -80 0.0001001358 106
v -79 1.358057E-07 125

vt -20 -16
vt -20 -1
vt 2 -18
vt 0 0
vt -20 19
vt 0 19
vt 19 -18
vt 20 0
vt 19 19

vn 0 1 0

usemtl ProBuilderDefault
f 142/156/21 143/157/21 141/155/21 140/154/21
f 143/157/21 145/159/21 144/158/21 141/155/21
f 146/160/21 147/161/21 143/157/21 142/156/21
f 147/161/21 148/162/21 145/159/21 143/157/21

g PolyShape (3)
v -81 9 17
v -40 8.999996 5
v -21 8.999996 0.9999998
v -10 8.999996 9.283556E-07
v -10 9 7
v -22 9 10
v -29 8.999996 18
v -26 8.999996 36
v -76 9 68
v -84 9 55
v -41 9 66
v -50 9 69

vt 0 0
vt -41 -12
vt -60 -16
vt -71 -16.99999
vt -71 -9.999995
vt -59 -6.999996
vt -52 1.000003
vt -55 19
vt 8 -13.00001
vt 4.999992 -51
vt -50 -31.99999
vt -34.99999 -2
vt -25.99999 0.9999962

vn 7.408423E-08 1 -3.768308E-08

usemtl ProBuilderDefault
f 153/167/22 152/166/22 151/165/22
f 149/163/22 156/170/22 155/169/22
f 149/163/22 155/169/22 150/164/22
f 155/169/22 154/168/22 150/164/22
f 154/168/22 151/165/22 150/164/22
f 153/167/22 151/165/22 154/168/22
f 156/173/22 149/172/22 158/171/22
f 157/163/22 160/175/22 158/171/22
f 156/173/22 158/171/22 160/175/22
f 160/175/22 159/174/22 156/173/22

